<svg xmlns="http://www.w3.org/2000/svg" width="30" height="30" viewBox="0 0 30 30" fill="none"><metadata><rdf:RDF xmlns:rdf="http://www.w3.org/1999/02/22-rdf-syntax-ns#" xmlns:dc="http://purl.org/dc/elements/1.1/"><rdf:Description><dc:creator>RealFaviconGenerator</dc:creator><dc:source>https://realfavicongenerator.net</dc:source></rdf:Description></rdf:RDF></metadata><rect width="30" height="30" fill="white"></rect><path d="M10.2159 22.0253C9.12659 22.0253 8.14493 21.8574 7.27093 21.5218C6.39693 21.1798 5.65276 20.6984 5.03843 20.0778C4.42409 19.4508 3.95226 18.7098 3.62293 17.8548C3.29993 16.9934 3.13843 16.0466 3.13843 15.0143C3.13843 13.6526 3.41393 12.4429 3.96493 11.3853C4.52226 10.3213 5.31076 9.48843 6.33043 8.88676C7.35009 8.27876 8.56293 7.97476 9.96893 7.97476C10.4059 7.97476 10.8366 8.00326 11.2609 8.06026C11.6916 8.11726 12.1001 8.19643 12.4864 8.29776C12.8791 8.3991 13.2401 8.5131 13.5694 8.63976C13.9051 8.7601 14.1996 8.88993 14.4529 9.02926L14.2439 11.5183C13.7563 11.2143 13.2813 10.9704 12.8189 10.7868C12.3566 10.5968 11.9101 10.4606 11.4794 10.3783C11.0551 10.2959 10.6434 10.2548 10.2444 10.2548C9.40843 10.2548 8.66109 10.4416 8.00243 10.8153C7.35009 11.1889 6.83709 11.7304 6.46343 12.4398C6.08976 13.1491 5.90293 14.0073 5.90293 15.0143C5.90293 15.6666 5.99793 16.2841 6.18793 16.8668C6.38426 17.4431 6.67559 17.9529 7.06193 18.3963C7.44826 18.8396 7.92959 19.1879 8.50593 19.4413C9.08859 19.6883 9.76626 19.8118 10.5389 19.8118C10.8429 19.8118 11.1501 19.7928 11.4604 19.7548C11.7708 19.7104 12.0811 19.6439 12.3914 19.5553C12.7018 19.4666 13.0089 19.3463 13.3129 19.1943C13.6169 19.0423 13.9178 18.8586 14.2154 18.6433L14.3769 21.1038C14.1109 21.2621 13.8133 21.4014 13.4839 21.5218C13.1546 21.6358 12.8094 21.7308 12.4484 21.8068C12.0938 21.8828 11.7264 21.9366 11.3464 21.9683C10.9664 22.0063 10.5896 22.0253 10.2159 22.0253Z" fill="#025A4E"></path><path d="M16.8012 21.7878C16.8012 21.0531 16.8012 20.3406 16.8012 19.6503C16.8012 18.9599 16.8012 18.1936 16.8012 17.3513V12.7628C16.8012 11.9014 16.8012 11.1193 16.8012 10.4163C16.8012 9.71326 16.8012 8.9881 16.8012 8.24076C17.3395 8.24076 18.052 8.24076 18.9387 8.24076C19.8317 8.24076 20.8577 8.24076 22.0167 8.24076C23.0934 8.24076 23.9895 8.37693 24.7052 8.64926C25.4209 8.9216 25.9592 9.36176 26.3202 9.96976C26.6812 10.5714 26.8617 11.3758 26.8617 12.3828C26.8617 13.2504 26.7034 14.0199 26.3867 14.6913C26.07 15.3563 25.557 15.8788 24.8477 16.2588C24.1384 16.6324 23.1852 16.8193 21.9882 16.8193C21.6842 16.8193 21.3517 16.8193 20.9907 16.8193C20.636 16.8193 20.2877 16.8193 19.9457 16.8193C19.61 16.8193 19.3219 16.8193 19.0812 16.8193V14.7198H21.4087C22.042 14.7198 22.5614 14.6406 22.9667 14.4823C23.372 14.3239 23.6697 14.0769 23.8597 13.7413C24.056 13.3993 24.1542 12.9559 24.1542 12.4113C24.1542 11.9679 24.0845 11.6133 23.9452 11.3473C23.8059 11.0749 23.6222 10.8691 23.3942 10.7298C23.1662 10.5904 22.916 10.4954 22.6437 10.4448C22.3714 10.3941 22.1022 10.3688 21.8362 10.3688H18.1407L19.4232 8.64926C19.4232 9.3966 19.4232 10.1249 19.4232 10.8343C19.4232 11.5373 19.4232 12.3194 19.4232 13.1808V17.3513C19.4232 18.1936 19.4232 18.9599 19.4232 19.6503C19.4232 20.3406 19.4232 21.0531 19.4232 21.7878H16.8012Z" fill="#025A4E"></path><style>@media (prefers-color-scheme: light) { :root { filter: none; } }
@media (prefers-color-scheme: dark) { :root { filter: none; } }
</style></svg>