<svg width="70" height="70" viewBox="0 0 70 70" fill="none" xmlns="http://www.w3.org/2000/svg">
<path d="M70 35C70 62 44.5 70 35 70C25.5 70 0 54.33 0 35C0 15.67 15.67 0 35 0C54.33 0 70 8 70 35Z" fill="#4F7D70"/>
<path d="M29.68 32.384L29.024 30.16C30.336 29.456 31.648 28.7573 32.96 28.064C34.2827 27.3707 35.6053 26.672 36.928 25.968L36.848 28.512C35.6533 29.1627 34.4587 29.808 33.264 30.448C32.08 31.088 30.8853 31.7333 29.68 32.384ZM35.552 48C35.552 46.816 35.552 45.68 35.552 44.592C35.552 43.504 35.552 42.304 35.552 40.992V34.112C35.552 32.9707 35.552 31.8293 35.552 30.688C35.552 29.5467 35.552 28.4 35.552 27.248L36.928 25.968L38.256 26.064C38.256 27.2587 38.256 28.4907 38.256 29.76C38.256 31.0293 38.256 32.336 38.256 33.68V40.992C38.256 42.304 38.256 43.504 38.256 44.592C38.256 45.68 38.256 46.816 38.256 48H35.552Z" fill="white"/>
</svg>
