<svg width="70" height="70" viewBox="0 0 70 70" fill="none" xmlns="http://www.w3.org/2000/svg">
<path d="M70 35C70 62 44.5 70 35 70C25.5 70 0 54.33 0 35C0 15.67 15.67 0 35 0C54.33 0 70 8 70 35Z" fill="#4F7D70"/>
<path d="M29.552 48V46.048C30.2027 45.4827 30.8533 44.912 31.504 44.336C32.1653 43.76 32.8213 43.1947 33.472 42.64C35.0187 41.296 36.336 40.0427 37.424 38.88C38.5227 37.7067 39.3653 36.576 39.952 35.488C40.5387 34.4 40.832 33.312 40.832 32.224C40.832 30.8373 40.4533 29.7973 39.696 29.104C38.9387 28.4 37.7973 28.048 36.272 28.048C35.76 28.048 35.232 28.096 34.688 28.192C34.1547 28.288 33.6107 28.432 33.056 28.624C32.5013 28.8053 31.9467 29.0347 31.392 29.312C30.8373 29.5893 30.288 29.9093 29.744 30.272L29.456 27.568C29.936 27.3013 30.4587 27.0507 31.024 26.816C31.5893 26.5813 32.1867 26.3787 32.816 26.208C33.4453 26.0373 34.0853 25.904 34.736 25.808C35.3973 25.7013 36.0587 25.648 36.72 25.648C38.192 25.648 39.44 25.904 40.464 26.416C41.4987 26.9173 42.2827 27.6373 42.816 28.576C43.3493 29.5147 43.616 30.6293 43.616 31.92C43.616 33.1253 43.3387 34.3307 42.784 35.536C42.2293 36.7307 41.4027 37.9573 40.304 39.216C39.216 40.464 37.872 41.7707 36.272 43.136L32.704 46.16L32.304 45.6H36.752C37.968 45.6 39.184 45.6 40.4 45.6C41.616 45.6 42.832 45.6 44.048 45.6V48H29.552Z" fill="white"/>
</svg>
