<svg width="70" height="70" viewBox="0 0 70 70" fill="none" xmlns="http://www.w3.org/2000/svg">
<path d="M70 35C70 62 44.5 70 35 70C25.5 70 0 54.33 0 35C0 15.67 15.67 0 35 0C54.33 0 70 8 70 35Z" fill="#4F7D70"/>
<path d="M36.848 48.352C36.1653 48.352 35.4827 48.304 34.8 48.208C34.1173 48.1227 33.4507 48 32.8 47.84C32.16 47.68 31.552 47.4933 30.976 47.28C30.4107 47.056 29.8933 46.8213 29.424 46.576L29.696 43.984C30.272 44.304 30.8533 44.5867 31.44 44.832C32.0373 45.0773 32.6293 45.2853 33.216 45.456C33.8027 45.616 34.3787 45.7387 34.944 45.824C35.52 45.9093 36.0747 45.952 36.608 45.952C38.4533 45.952 39.7867 45.5787 40.608 44.832C41.4293 44.0747 41.84 43.12 41.84 41.968C41.84 40.5813 41.28 39.5253 40.16 38.8C39.04 38.0747 37.4773 37.712 35.472 37.712C35.12 37.712 34.7733 37.712 34.432 37.712C34.1013 37.712 33.7653 37.712 33.424 37.712V35.44C33.7333 35.44 34.048 35.44 34.368 35.44C34.6987 35.44 35.024 35.44 35.344 35.44C36.6987 35.44 37.7973 35.264 38.64 34.912C39.4827 34.56 40.1013 34.0853 40.496 33.488C40.9013 32.8907 41.104 32.2133 41.104 31.456C41.104 30.2933 40.6827 29.4347 39.84 28.88C39.008 28.3253 37.9467 28.048 36.656 28.048C36.1547 28.048 35.632 28.1013 35.088 28.208C34.5547 28.304 34.0107 28.448 33.456 28.64C32.912 28.8213 32.3627 29.0507 31.808 29.328C31.264 29.6053 30.7307 29.9253 30.208 30.288L29.888 27.648C30.3573 27.3707 30.8693 27.1093 31.424 26.864C31.9787 26.6187 32.5653 26.4053 33.184 26.224C33.8027 26.0427 34.432 25.8987 35.072 25.792C35.7227 25.6853 36.368 25.632 37.008 25.632C38.3733 25.632 39.5733 25.8507 40.608 26.288C41.6427 26.7253 42.448 27.3493 43.024 28.16C43.6 28.96 43.888 29.9093 43.888 31.008C43.888 31.9253 43.696 32.7413 43.312 33.456C42.928 34.16 42.416 34.7467 41.776 35.216C41.136 35.6747 40.432 35.9947 39.664 36.176V36.448C40.2507 36.5547 40.832 36.7467 41.408 37.024C41.9947 37.2907 42.528 37.6587 43.008 38.128C43.4987 38.5867 43.888 39.1467 44.176 39.808C44.4747 40.4693 44.624 41.248 44.624 42.144C44.624 43.3067 44.3413 44.3573 43.776 45.296C43.2107 46.2347 42.352 46.9813 41.2 47.536C40.048 48.08 38.5973 48.352 36.848 48.352Z" fill="white"/>
</svg>
